# xmcd
#
# Track frame offsets:
# 150
# 8095
# 21550
# 31171
# 40017
# 50298
# 66251
# 74941
# 85498
# 98562
# 107112
# 114753
# 130907
# 137553
# 145912
# 154987
# 165932
# 180044
# 191706
# 201215
# 211272
# 221114
# 230995
# 240064
# 253788
# 264558
#
# Disc length: 3669 seconds
#
# Revision: 0
# Processed by: cddbd v1.5.2PL0 Copyright (c) Steve Scherf et al.
# Submitted via: Audion 3.0.2 (http://www.panic.com/audion/)
#
DISCID=700e531a
DTITLE=The Seekers - Geenbriars
DYEAR=1900
DGENRE=
TTITLE0=a 
TTITLE1=b
TTITLE2=c
TTITLE3=d  
TTITLE4=e
TTITLE5=f
TTITLE6=g
TTITLE7=h
TTITLE8=i
TTITLE9=j
TTITLE10=k 
TTITLE11=l
TTITLE12=m
TTITLE13=n
TTITLE14=o
TTITLE15=p
TTITLE16=q
TTITLE17=r
TTITLE18=s
TTITLE19=t
TTITLE20=u
TTITLE21=v
TTITLE22=w
TTITLE23=x
TTITLE24=y
TTITLE25=z
EXTD=
EXTT0=
EXTT1=
EXTT2=
EXTT3=
EXTT4=
EXTT5=
EXTT6=
EXTT7=
EXTT8=
EXTT9=
EXTT10=
EXTT11=
EXTT12=
EXTT13=
EXTT14=
EXTT15=
EXTT16=
EXTT17=
EXTT18=
EXTT19=
EXTT20=
EXTT21=
EXTT22=
EXTT23=
EXTT24=
EXTT25=
PLAYORDER=
